<svg xmlns="http://www.w3.org/2000/svg" viewBox="0 0 64 64" width="64" height="64">
  <!-- Left sword -->
  <g transform="rotate(-40, 32, 32)">
    <polygon points="30,4 34,4 33,38 31,38" fill="#D0D0D0"/>
    <polygon points="31,4 33,4 32.5,38 31.5,38" fill="#F0F0F0" opacity="0.5"/>
    <rect x="24" y="37" width="16" height="4" rx="2" fill="#d4a843"/>
    <rect x="30" y="41" width="4" height="10" rx="1.5" fill="#6B3410"/>
    <circle cx="32" cy="53" r="2.5" fill="#d4a843"/>
  </g>
  <!-- Right sword -->
  <g transform="rotate(40, 32, 32)">
    <polygon points="30,4 34,4 33,38 31,38" fill="#D0D0D0"/>
    <polygon points="31,4 33,4 32.5,38 31.5,38" fill="#F0F0F0" opacity="0.5"/>
    <rect x="24" y="37" width="16" height="4" rx="2" fill="#d4a843"/>
    <rect x="30" y="41" width="4" height="10" rx="1.5" fill="#6B3410"/>
    <circle cx="32" cy="53" r="2.5" fill="#d4a843"/>
  </g>
  <!-- Clash sparks -->
  <circle cx="32" cy="18" r="5" fill="#FFD700" opacity="0.8"/>
  <circle cx="32" cy="18" r="2.5" fill="#FFFFFF"/>
  <line x1="26" y1="14" x2="23" y2="11" stroke="#FFD700" stroke-width="1.5" stroke-linecap="round"/>
  <line x1="38" y1="14" x2="41" y2="11" stroke="#FFD700" stroke-width="1.5" stroke-linecap="round"/>
  <line x1="32" y1="11" x2="32" y2="7" stroke="#FFD700" stroke-width="1.5" stroke-linecap="round"/>
  <line x1="27" y1="19" x2="23" y2="20" stroke="#FFD700" stroke-width="1" stroke-linecap="round"/>
  <line x1="37" y1="19" x2="41" y2="20" stroke="#FFD700" stroke-width="1" stroke-linecap="round"/>
</svg>
